<?xml version="1.0" encoding="UTF-8"?>
<svg id="Layer_1" data-name="Layer 1" xmlns="http://www.w3.org/2000/svg" viewBox="0 0 1061.39 477.81">
  <g>
    <path d="M918.15,91.19c-75.78,0-137.42,61.65-137.42,137.41v246h46.2v-143.35c24.28,21.61,56.24,34.77,91.23,34.77,75.77,0,137.41-61.65,137.41-137.43s-61.64-137.41-137.41-137.41Zm0,228.65c-50.32,0-91.23-40.92-91.23-91.23s40.91-91.23,91.23-91.23,91.22,40.94,91.22,91.23-40.91,91.23-91.22,91.23Z"/>
    <path d="M612.29,91.18c-75.76,0-137.42,61.65-137.42,137.42s61.65,137.42,137.42,137.42c35,0,66.95-13.16,91.25-34.77v34.77h46.19V228.6c0-75.77-61.64-137.42-137.44-137.42Zm0,228.65c-50.3,0-91.22-40.92-91.22-91.24s40.92-91.23,91.22-91.23,91.25,40.93,91.25,91.23-40.92,91.24-91.25,91.24Z"/>
    <path d="M455.76,199.3c-13.35-62.04-68.61-108.69-134.6-108.69-75.92,0-137.67,61.76-137.67,137.69,0,10.62,1.24,20.94,3.53,30.88l-134.99,55.13V2.44H5.84V331.2c0,11.6,5.73,22.38,15.35,28.88,9.6,6.49,21.75,7.76,32.6,3.38l151.01-61.69c24.45,38.55,67.44,64.21,116.35,64.21,63.01,0,116.17-42.62,132.46-100.51h-49.24c-14.24,31.83-46.09,54.04-83.22,54.04-29.47,0-55.62-14.04-72.29-35.73l206.88-84.49Zm-224.79,41.91c-.6-4.23-1.03-8.52-1.03-12.91,0-50.39,40.84-91.22,91.22-91.22,30.19,0,56.86,14.7,73.45,37.29l-163.64,66.84Z"/>
  </g>
  <g>
    <polygon points="13.14 453.12 31.91 453.12 31.91 446.94 13.14 446.94 13.14 432.34 41.71 432.34 41.71 425.94 5.84 425.94 5.84 474.6 41.99 474.6 41.99 468.21 13.14 468.21 13.14 453.12"/>
    <polygon points="70.83 467.37 54.36 425.94 46.51 425.94 66.39 474.6 74.93 474.6 95.1 425.94 87.59 425.94 70.83 467.37"/>
    <polygon points="108.79 453.12 127.56 453.12 127.56 446.94 108.79 446.94 108.79 432.34 137.36 432.34 137.36 425.94 101.49 425.94 101.49 474.6 137.64 474.6 137.64 468.21 108.79 468.21 108.79 453.12"/>
    <polygon points="180.81 462.09 153.63 425.94 146.54 425.94 146.54 474.6 153.48 474.6 153.48 437.34 181.3 474.6 187.69 474.6 187.69 425.94 180.81 425.94 180.81 462.09"/>
    <polygon points="195.26 432.4 212.37 432.4 212.37 474.6 219.67 474.6 219.67 432.4 236.77 432.4 236.77 425.94 195.26 425.94 195.26 432.4"/>
    <polygon points="256.44 432.4 273.54 432.4 273.54 474.6 280.84 474.6 280.84 432.4 297.94 432.4 297.94 425.94 256.44 425.94 256.44 432.4"/>
    <polygon points="312.74 453.12 331.51 453.12 331.51 446.94 312.74 446.94 312.74 432.34 341.32 432.34 341.32 425.94 305.45 425.94 305.45 474.6 341.6 474.6 341.6 468.21 312.74 468.21 312.74 453.12"/>
    <path d="M357.93,437.17c1.62-1.64,3.53-2.93,5.73-3.86,2.2-.93,4.6-1.39,7.19-1.39,2.83,0,5.54,.57,8.13,1.7,2.59,1.14,4.8,2.8,6.61,4.98l4.86-5.01c-1.53-1.76-3.32-3.26-5.38-4.51-2.06-1.26-4.31-2.21-6.74-2.88-2.43-.67-4.92-1.01-7.47-1.01-3.57,0-6.91,.63-10.01,1.91-3.11,1.28-5.83,3.06-8.17,5.35-2.34,2.29-4.15,4.96-5.42,7.99-1.28,3.04-1.91,6.31-1.91,9.84s.64,6.8,1.91,9.83c1.27,3.04,3.08,5.7,5.42,8,2.34,2.29,5.05,4.08,8.13,5.35,3.08,1.28,6.43,1.92,10.04,1.92,2.45,0,4.88-.34,7.27-1.01,2.39-.67,4.61-1.65,6.67-2.93,2.06-1.27,3.9-2.77,5.53-4.48l-4.8-4.87c-1.76,2.09-3.9,3.69-6.43,4.83-2.53,1.14-5.2,1.7-8.03,1.7-2.59,0-5-.47-7.23-1.39-2.22-.93-4.17-2.23-5.84-3.9-1.67-1.67-2.95-3.62-3.86-5.84-.9-2.22-1.36-4.63-1.36-7.23s.45-5.08,1.36-7.3c.9-2.23,2.16-4.16,3.79-5.81Z"/>
    <polygon points="432.03 446.8 406.17 446.8 406.17 425.94 398.87 425.94 398.87 474.6 406.17 474.6 406.17 453.4 432.03 453.4 432.03 474.6 439.33 474.6 439.33 425.94 432.03 425.94 432.03 446.8"/>
    <polygon points="484.93 462.09 457.75 425.94 450.66 425.94 450.66 474.6 457.61 474.6 457.61 437.34 485.42 474.6 491.82 474.6 491.82 425.94 484.93 425.94 484.93 462.09"/>
    <path d="M544.37,432.44c-2.32-2.3-5.02-4.07-8.1-5.35-3.09-1.28-6.38-1.91-9.91-1.91s-6.81,.63-9.87,1.91c-3.06,1.28-5.76,3.06-8.1,5.35-2.34,2.29-4.15,4.96-5.42,7.99-1.27,3.04-1.91,6.31-1.91,9.84s.64,6.8,1.91,9.83c1.28,3.04,3.08,5.7,5.42,8,2.34,2.29,5.04,4.08,8.1,5.35,3.06,1.28,6.34,1.92,9.87,1.92s6.82-.64,9.91-1.92c3.08-1.27,5.78-3.06,8.1-5.35,2.32-2.3,4.12-4.96,5.42-8,1.3-3.03,1.95-6.31,1.95-9.83s-.65-6.8-1.95-9.84c-1.3-3.03-3.1-5.7-5.42-7.99Zm-1.46,25.09c-.93,2.25-2.2,4.2-3.83,5.84-1.62,1.64-3.51,2.93-5.66,3.86-2.16,.92-4.49,1.39-6.99,1.39s-4.92-.47-7.09-1.39c-2.18-.93-4.08-2.21-5.7-3.86-1.62-1.65-2.89-3.59-3.79-5.84-.9-2.25-1.35-4.69-1.35-7.33s.45-5.01,1.35-7.23c.9-2.23,2.16-4.16,3.79-5.81,1.62-1.64,3.52-2.93,5.7-3.86,2.17-.93,4.54-1.39,7.09-1.39s4.83,.46,6.99,1.39c2.15,.93,4.04,2.21,5.66,3.86,1.62,1.65,2.9,3.58,3.83,5.81,.92,2.22,1.39,4.65,1.39,7.3s-.47,5.01-1.39,7.26Z"/>
    <polygon points="568.14 425.94 560.84 425.94 560.84 474.6 596.16 474.6 596.16 468.14 568.14 468.14 568.14 425.94"/>
    <path d="M642.04,432.44c-2.32-2.3-5.02-4.07-8.1-5.35-3.08-1.28-6.38-1.91-9.9-1.91s-6.81,.63-9.87,1.91c-3.06,1.28-5.76,3.06-8.1,5.35-2.34,2.29-4.15,4.96-5.42,7.99-1.27,3.04-1.91,6.31-1.91,9.84s.64,6.8,1.91,9.83c1.27,3.04,3.08,5.7,5.42,8,2.34,2.29,5.04,4.08,8.1,5.35,3.06,1.28,6.35,1.92,9.87,1.92s6.82-.64,9.9-1.92c3.08-1.27,5.78-3.06,8.1-5.35,2.32-2.3,4.12-4.96,5.42-8,1.29-3.03,1.95-6.31,1.95-9.83s-.65-6.8-1.95-9.84c-1.3-3.03-3.1-5.7-5.42-7.99Zm-1.46,25.09c-.93,2.25-2.2,4.2-3.82,5.84-1.62,1.64-3.51,2.93-5.67,3.86-2.15,.92-4.48,1.39-6.99,1.39s-4.91-.47-7.09-1.39c-2.18-.93-4.08-2.21-5.7-3.86-1.62-1.65-2.89-3.59-3.79-5.84-.91-2.25-1.36-4.69-1.36-7.33s.45-5.01,1.36-7.23c.9-2.23,2.16-4.16,3.79-5.81,1.62-1.64,3.52-2.93,5.7-3.86,2.17-.93,4.54-1.39,7.09-1.39s4.83,.46,6.99,1.39,4.04,2.21,5.67,3.86c1.62,1.65,2.89,3.58,3.82,5.81,.93,2.22,1.39,4.65,1.39,7.3s-.47,5.01-1.39,7.26Z"/>
    <path d="M681.94,454.79h16.2c-.33,2.64-1.23,5.02-2.71,7.12-1.48,2.11-3.4,3.77-5.74,4.97-2.34,1.2-4.95,1.8-7.82,1.8-2.55,0-4.91-.46-7.09-1.39-2.18-.92-4.09-2.22-5.74-3.89-1.64-1.67-2.92-3.63-3.82-5.88-.91-2.25-1.36-4.67-1.36-7.26s.45-5.08,1.36-7.3c.9-2.23,2.16-4.16,3.79-5.81,1.62-1.64,3.51-2.93,5.66-3.86,2.16-.93,4.51-1.39,7.06-1.39,2.82,0,5.52,.57,8.1,1.7,2.57,1.14,4.73,2.75,6.5,4.83l5-4.87c-2.36-2.64-5.26-4.7-8.69-6.18-3.43-1.49-7.07-2.23-10.91-2.23-3.57,0-6.88,.65-9.94,1.94-3.06,1.3-5.74,3.09-8.06,5.39-2.32,2.29-4.12,4.96-5.39,7.99-1.28,3.04-1.91,6.29-1.91,9.77s.65,6.73,1.94,9.77c1.3,3.04,3.11,5.7,5.42,7.99,2.32,2.3,5.02,4.1,8.1,5.39,3.08,1.3,6.41,1.95,9.98,1.95,3.38,0,6.53-.62,9.45-1.84,2.92-1.23,5.46-2.96,7.61-5.19,2.16-2.22,3.84-4.82,5.04-7.78,1.2-2.96,1.81-6.19,1.81-9.66v-2.5h-23.84v6.39Z"/>
    <polygon points="743.67 425.94 728.72 448.81 713.78 425.94 705.29 425.94 724.9 455.28 724.9 474.6 732.2 474.6 732.2 455.41 751.8 425.94 743.67 425.94"/>
  </g>
</svg>